<svg width="184" height="26" viewBox="0 0 184 26" fill="none" xmlns="http://www.w3.org/2000/svg">
<path fill-rule="evenodd" clip-rule="evenodd" d="M171.5 1C164.596 1 159 6.59644 159 13.5C159 20.4036 164.596 26 171.5 26C178.404 26 184 20.4036 184 13.5C184 6.59644 178.404 1 171.5 1ZM168.752 6.8736C169.463 6.84124 169.69 6.83332 171.501 6.83332H171.499C173.31 6.83332 173.536 6.84124 174.247 6.8736C174.957 6.9061 175.442 7.01846 175.867 7.18332C176.306 7.35346 176.676 7.58124 177.047 7.95208C177.418 8.32264 177.646 8.69459 177.817 9.13307C177.981 9.55696 178.093 10.0414 178.126 10.7511C178.158 11.4623 178.167 11.6895 178.167 13.5001C178.167 15.3106 178.158 15.5373 178.126 16.2484C178.093 16.9579 177.981 17.4425 177.817 17.8665C177.646 18.3048 177.418 18.6768 177.047 19.0473C176.677 19.4182 176.305 19.6465 175.867 19.8168C175.443 19.9817 174.958 20.094 174.248 20.1265C173.537 20.1589 173.311 20.1668 171.5 20.1668C169.689 20.1668 169.462 20.1589 168.751 20.1265C168.042 20.094 167.557 19.9817 167.133 19.8168C166.695 19.6465 166.323 19.4182 165.952 19.0473C165.582 18.6768 165.354 18.3048 165.183 17.8664C165.019 17.4425 164.906 16.958 164.874 16.2483C164.841 15.5372 164.833 15.3106 164.833 13.5001C164.833 11.6895 164.842 11.4621 164.874 10.751C164.905 10.0415 165.018 9.55696 165.183 9.13293C165.354 8.69459 165.582 8.32264 165.953 7.95208C166.323 7.58138 166.695 7.3536 167.134 7.18332C167.558 7.01846 168.042 6.9061 168.752 6.8736Z" fill="#2D9CDB"/>
<path fill-rule="evenodd" clip-rule="evenodd" d="M170.903 8.03475C171.019 8.03457 171.144 8.03462 171.278 8.03468L171.501 8.03475C173.281 8.03475 173.492 8.04114 174.195 8.07308C174.845 8.1028 175.197 8.21142 175.432 8.30267C175.743 8.4235 175.965 8.56795 176.198 8.80128C176.432 9.03462 176.576 9.25684 176.697 9.56796C176.789 9.80268 176.897 10.1555 176.927 10.8055C176.959 11.5083 176.966 11.7194 176.966 13.4986C176.966 15.2777 176.959 15.4889 176.927 16.1916C176.897 16.8416 176.789 17.1944 176.697 17.4292C176.576 17.7403 176.432 17.9618 176.198 18.195C175.965 18.4283 175.744 18.5728 175.432 18.6936C175.198 18.7853 174.845 18.8936 174.195 18.9233C173.492 18.9553 173.281 18.9622 171.501 18.9622C169.72 18.9622 169.509 18.9553 168.807 18.9233C168.157 18.8933 167.804 18.7847 167.569 18.6935C167.258 18.5726 167.035 18.4282 166.802 18.1949C166.569 17.9615 166.424 17.7398 166.303 17.4286C166.212 17.1939 166.103 16.8411 166.074 16.1911C166.042 15.4883 166.035 15.2772 166.035 13.4969C166.035 11.7166 166.042 11.5066 166.074 10.8038C166.103 10.1538 166.212 9.80102 166.303 9.56601C166.424 9.2549 166.569 9.03267 166.802 8.79934C167.035 8.566 167.258 8.42156 167.569 8.30044C167.804 8.20878 168.157 8.10044 168.807 8.07058C169.422 8.0428 169.66 8.03447 170.903 8.03308V8.03475ZM175.059 9.1417C174.618 9.1417 174.259 9.49962 174.259 9.94143C174.259 10.3831 174.618 10.7414 175.059 10.7414C175.501 10.7414 175.859 10.3831 175.859 9.94143C175.859 9.49976 175.501 9.14142 175.059 9.14142V9.1417ZM168.077 13.5001C168.077 11.6094 169.61 10.0765 171.501 10.0764C173.391 10.0764 174.924 11.6093 174.924 13.5001C174.924 15.3908 173.391 16.923 171.501 16.923C169.61 16.923 168.077 15.3908 168.077 13.5001Z" fill="#2D9CDB"/>
<path fill-rule="evenodd" clip-rule="evenodd" d="M171.501 11.2778C172.728 11.2778 173.723 12.2727 173.723 13.5C173.723 14.7273 172.728 15.7223 171.501 15.7223C170.273 15.7223 169.278 14.7273 169.278 13.5C169.278 12.2727 170.273 11.2778 171.501 11.2778V11.2778Z" fill="#2D9CDB"/>
<path fill-rule="evenodd" clip-rule="evenodd" d="M65.5 0C58.5964 0 53 5.59644 53 12.5C53 19.4036 58.5964 25 65.5 25C72.4036 25 78 19.4036 78 12.5C78 5.59644 72.4036 0 65.5 0ZM66.8028 13.0491V19.8497H63.989V13.0493H62.5833V10.7058H63.989V9.29872C63.989 7.38686 64.7828 6.24999 67.038 6.24999H68.9156V8.5938H67.742C66.8641 8.5938 66.806 8.92132 66.806 9.53255L66.8028 10.7055H68.9289L68.6801 13.0491H66.8028Z" fill="#2D9CDB"/>
<path fill-rule="evenodd" clip-rule="evenodd" d="M118.5 0C111.596 0 106 5.59644 106 12.5C106 19.4036 111.596 25 118.5 25C125.404 25 131 19.4036 131 12.5C131 5.59644 125.404 0 118.5 0ZM119.518 16.4459C119.395 16.5759 119.154 16.6021 119.154 16.6021H118.357C118.357 16.6021 116.599 16.7058 115.05 15.1234C113.361 13.397 111.87 9.97163 111.87 9.97163C111.87 9.97163 111.784 9.74695 111.877 9.63877C111.982 9.5165 112.268 9.50882 112.268 9.50882L114.173 9.49666C114.173 9.49666 114.352 9.52546 114.481 9.61828C114.587 9.6951 114.646 9.83785 114.646 9.83785C114.646 9.83785 114.954 10.6022 115.362 11.2935C116.158 12.6435 116.528 12.9386 116.798 12.794C117.192 12.5834 117.074 10.8857 117.074 10.8857C117.074 10.8857 117.081 10.2699 116.876 9.99532C116.717 9.7828 116.417 9.7207 116.285 9.70342C116.177 9.68934 116.353 9.44481 116.581 9.33534C116.924 9.17083 117.529 9.16123 118.245 9.16827C118.802 9.17403 118.963 9.20796 119.181 9.25981C119.686 9.37955 119.67 9.7633 119.636 10.5915C119.626 10.8392 119.614 11.1266 119.614 11.4587C119.614 11.5333 119.612 11.6128 119.61 11.6946C119.598 12.1189 119.584 12.6048 119.869 12.7857C120.015 12.8778 120.372 12.7991 121.265 11.3114C121.688 10.606 122.005 9.77703 122.005 9.77703C122.005 9.77703 122.075 9.62916 122.182 9.56579C122.293 9.50114 122.441 9.52098 122.441 9.52098L124.446 9.50882C124.446 9.50882 125.049 9.43776 125.146 9.70534C125.248 9.98508 124.921 10.6393 124.102 11.7109C123.325 12.7276 122.947 13.102 122.981 13.4331C123.007 13.675 123.252 13.8938 123.724 14.3233C124.709 15.2206 124.973 15.6927 125.036 15.8061C125.041 15.8155 125.045 15.8224 125.048 15.8269C125.489 16.5458 124.558 16.6021 124.558 16.6021L122.777 16.6265C122.777 16.6265 122.395 16.7007 121.892 16.3614C121.628 16.1839 121.37 15.8939 121.125 15.6176C120.75 15.1957 120.404 14.806 120.108 14.8981C119.612 15.053 119.627 16.1022 119.627 16.1022C119.627 16.1022 119.631 16.3269 119.518 16.4459Z" fill="#2D9CDB"/>
<path fill-rule="evenodd" clip-rule="evenodd" d="M12.5 1C5.59644 1 0 6.59644 0 13.5C0 20.4036 5.59644 26 12.5 26C19.4036 26 25 20.4036 25 13.5C25 6.59644 19.4036 1 12.5 1ZM17.7091 9.20278C18.2829 9.3602 18.7347 9.82407 18.888 10.4131C19.1666 11.4807 19.1666 13.7083 19.1666 13.7083C19.1666 13.7083 19.1666 15.9358 18.888 17.0035C18.7347 17.5926 18.2829 18.0565 17.7091 18.214C16.6694 18.5 12.5 18.5 12.5 18.5C12.5 18.5 8.33051 18.5 7.29074 18.214C6.71703 18.0565 6.26521 17.5926 6.11187 17.0035C5.83331 15.9358 5.83331 13.7083 5.83331 13.7083C5.83331 13.7083 5.83331 11.4807 6.11187 10.4131C6.26521 9.82407 6.71703 9.3602 7.29074 9.20278C8.33051 8.91667 12.5 8.91667 12.5 8.91667C12.5 8.91667 16.6694 8.91667 17.7091 9.20278Z" fill="#2D9CDB"/>
<path fill-rule="evenodd" clip-rule="evenodd" d="M11.25 16V11.8333L14.5833 13.9168L11.25 16Z" fill="#2D9CDB"/>
</svg>
