<svg width="405" height="946" viewBox="0 0 405 946" fill="none" xmlns="http://www.w3.org/2000/svg">
<g filter="url(#filter0_d)">
<path d="M202.5 935C-35.5 815.335 -35.5 715.613 202.5 635.836C440.5 556.059 440.5 456.338 202.5 336.672C-35.5 217.007 -35.5 117.286 202.5 37.5088" stroke="#CAD1E1" stroke-width="5"/>
</g>
<ellipse cx="221" cy="24.3849" rx="24" ry="24.2292" fill="#2D9CDB"/>
<ellipse cx="221" cy="24.385" rx="18" ry="18.1719" fill="#2D9CDB"/>
<path d="M215.872 32.5294C213.744 32.5294 212.152 31.9374 211.096 30.7534C210.056 29.5694 209.488 28.0174 209.392 26.0974C209.376 25.6654 209.368 24.9294 209.368 23.8894C209.368 22.8334 209.376 22.0814 209.392 21.6334C209.472 19.7454 210.048 18.2094 211.12 17.0254C212.192 15.8414 213.776 15.2494 215.872 15.2494C217.984 15.2494 219.576 15.8414 220.648 17.0254C221.72 18.2094 222.288 19.7454 222.352 21.6334C222.384 22.0814 222.4 22.8334 222.4 23.8894C222.4 24.9294 222.384 25.6654 222.352 26.0974C222.272 28.0174 221.704 29.5694 220.648 30.7534C219.608 31.9374 218.016 32.5294 215.872 32.5294ZM215.872 29.7694C216.88 29.7694 217.632 29.4414 218.128 28.7854C218.624 28.1134 218.888 27.1774 218.92 25.9774C218.952 25.0494 218.968 24.3454 218.968 23.8654C218.968 23.3374 218.952 22.6414 218.92 21.7774C218.888 20.5934 218.624 19.6654 218.128 18.9934C217.632 18.3214 216.88 17.9854 215.872 17.9854C214.88 17.9854 214.128 18.3214 213.616 18.9934C213.12 19.6654 212.856 20.5934 212.824 21.7774C212.808 22.2094 212.8 22.9054 212.8 23.8654C212.8 24.8094 212.808 25.5134 212.824 25.9774C212.856 27.1774 213.12 28.1134 213.616 28.7854C214.128 29.4414 214.88 29.7694 215.872 29.7694ZM230.421 32.2894C230.261 32.2894 230.125 32.2334 230.013 32.1214C229.901 32.0094 229.845 31.8734 229.845 31.7134V19.2814L226.197 22.0894C226.101 22.1694 225.989 22.2094 225.861 22.2094C225.669 22.2094 225.509 22.1214 225.381 21.9454L224.373 20.6494C224.293 20.5214 224.253 20.4014 224.253 20.2894C224.253 20.0974 224.341 19.9374 224.517 19.8094L229.893 15.6574C230.037 15.5454 230.237 15.4894 230.493 15.4894H232.605C232.781 15.4894 232.917 15.5454 233.013 15.6574C233.125 15.7534 233.181 15.8894 233.181 16.0654V31.7134C233.181 31.8734 233.125 32.0094 233.013 32.1214C232.917 32.2334 232.781 32.2894 232.605 32.2894H230.421Z" fill="white"/>
<ellipse cx="24" cy="175.817" rx="24" ry="24.2292" fill="#2D9CDB"/>
<ellipse cx="24" cy="175.818" rx="18" ry="18.1719" fill="#2D9CDB"/>
<path d="M15.872 183.962C13.744 183.962 12.152 183.37 11.096 182.186C10.056 181.002 9.488 179.45 9.392 177.53C9.376 177.098 9.368 176.362 9.368 175.322C9.368 174.266 9.376 173.514 9.392 173.066C9.472 171.178 10.048 169.642 11.12 168.458C12.192 167.274 13.776 166.682 15.872 166.682C17.984 166.682 19.576 167.274 20.648 168.458C21.72 169.642 22.288 171.178 22.352 173.066C22.384 173.514 22.4 174.266 22.4 175.322C22.4 176.362 22.384 177.098 22.352 177.53C22.272 179.45 21.704 181.002 20.648 182.186C19.608 183.37 18.016 183.962 15.872 183.962ZM15.872 181.202C16.88 181.202 17.632 180.874 18.128 180.218C18.624 179.546 18.888 178.61 18.92 177.41C18.952 176.482 18.968 175.778 18.968 175.298C18.968 174.77 18.952 174.074 18.92 173.21C18.888 172.026 18.624 171.098 18.128 170.426C17.632 169.754 16.88 169.418 15.872 169.418C14.88 169.418 14.128 169.754 13.616 170.426C13.12 171.098 12.856 172.026 12.824 173.21C12.808 173.642 12.8 174.338 12.8 175.298C12.8 176.242 12.808 176.946 12.824 177.41C12.856 178.61 13.12 179.546 13.616 180.218C14.128 180.874 14.88 181.202 15.872 181.202ZM25.4294 183.722C25.2694 183.722 25.1334 183.666 25.0214 183.554C24.9094 183.442 24.8534 183.306 24.8534 183.146V181.922C24.8534 181.49 25.0534 181.114 25.4534 180.794L29.2454 177.026C30.8934 175.73 32.0374 174.722 32.6774 174.002C33.3334 173.266 33.6614 172.546 33.6614 171.842C33.6614 171.09 33.4534 170.498 33.0374 170.066C32.6374 169.634 32.0294 169.418 31.2134 169.418C30.4134 169.418 29.7814 169.658 29.3174 170.138C28.8534 170.602 28.5654 171.21 28.4534 171.962C28.4054 172.154 28.3174 172.298 28.1894 172.394C28.0614 172.474 27.9174 172.514 27.7574 172.514H25.6214C25.4774 172.514 25.3574 172.466 25.2614 172.37C25.1654 172.274 25.1174 172.162 25.1174 172.034C25.1494 171.09 25.4054 170.21 25.8854 169.394C26.3654 168.562 27.0614 167.898 27.9734 167.402C28.8854 166.89 29.9574 166.634 31.1894 166.634C32.4694 166.634 33.5494 166.858 34.4294 167.306C35.3254 167.738 35.9974 168.338 36.4454 169.106C36.8934 169.874 37.1174 170.746 37.1174 171.722C37.1174 172.794 36.8134 173.762 36.2054 174.626C35.6134 175.49 34.7014 176.418 33.4694 177.41L30.0614 180.866H36.9014C37.0774 180.866 37.2134 180.922 37.3094 181.034C37.4214 181.13 37.4774 181.266 37.4774 181.442V183.146C37.4774 183.306 37.4214 183.442 37.3094 183.554C37.2134 183.666 37.0774 183.722 36.9014 183.722H25.4294Z" fill="white"/>
<ellipse cx="381" cy="503.922" rx="24" ry="24.2292" fill="#2D9CDB"/>
<ellipse cx="381" cy="503.922" rx="18" ry="18.1719" fill="#2D9CDB"/>
<path d="M372.872 512.066C370.744 512.066 369.152 511.474 368.096 510.29C367.056 509.106 366.488 507.554 366.392 505.634C366.376 505.202 366.368 504.466 366.368 503.426C366.368 502.37 366.376 501.618 366.392 501.17C366.472 499.282 367.048 497.746 368.12 496.562C369.192 495.378 370.776 494.786 372.872 494.786C374.984 494.786 376.576 495.378 377.648 496.562C378.72 497.746 379.288 499.282 379.352 501.17C379.384 501.618 379.4 502.37 379.4 503.426C379.4 504.466 379.384 505.202 379.352 505.634C379.272 507.554 378.704 509.106 377.648 510.29C376.608 511.474 375.016 512.066 372.872 512.066ZM372.872 509.306C373.88 509.306 374.632 508.978 375.128 508.322C375.624 507.65 375.888 506.714 375.92 505.514C375.952 504.586 375.968 503.882 375.968 503.402C375.968 502.874 375.952 502.178 375.92 501.314C375.888 500.13 375.624 499.202 375.128 498.53C374.632 497.858 373.88 497.522 372.872 497.522C371.88 497.522 371.128 497.858 370.616 498.53C370.12 499.202 369.856 500.13 369.824 501.314C369.808 501.746 369.8 502.442 369.8 503.402C369.8 504.346 369.808 505.05 369.824 505.514C369.856 506.714 370.12 507.65 370.616 508.322C371.128 508.978 371.88 509.306 372.872 509.306ZM388.237 512.066C386.829 512.066 385.629 511.842 384.637 511.394C383.661 510.946 382.925 510.386 382.429 509.714C381.949 509.026 381.693 508.322 381.661 507.602C381.661 507.458 381.709 507.346 381.805 507.266C381.917 507.17 382.045 507.122 382.189 507.122H384.349C384.701 507.122 384.933 507.282 385.045 507.602C385.397 508.754 386.469 509.33 388.261 509.33C389.237 509.33 390.005 509.106 390.565 508.658C391.125 508.194 391.405 507.538 391.405 506.69C391.405 505.09 390.405 504.29 388.405 504.29H385.933C385.757 504.29 385.613 504.234 385.501 504.122C385.389 504.01 385.333 503.874 385.333 503.714V502.706C385.333 502.45 385.445 502.21 385.669 501.986L389.965 497.786H383.101C382.941 497.786 382.805 497.73 382.693 497.618C382.581 497.506 382.525 497.37 382.525 497.21V495.626C382.525 495.45 382.573 495.306 382.669 495.194C382.781 495.082 382.925 495.026 383.101 495.026H393.397C393.573 495.026 393.717 495.082 393.829 495.194C393.941 495.306 393.997 495.45 393.997 495.626V497.066C393.997 497.306 393.893 497.53 393.685 497.738L389.533 502.01L389.821 502.034C391.357 502.162 392.573 502.626 393.469 503.426C394.381 504.226 394.837 505.37 394.837 506.858C394.837 507.914 394.549 508.834 393.973 509.618C393.413 510.402 392.629 511.01 391.621 511.442C390.629 511.858 389.501 512.066 388.237 512.066Z" fill="white"/>
<ellipse cx="24" cy="774.481" rx="24" ry="24.2292" fill="#2D9CDB"/>
<ellipse cx="24" cy="774.481" rx="18" ry="18.1719" fill="#2D9CDB"/>
<path d="M15.872 782.626C13.744 782.626 12.152 782.034 11.096 780.85C10.056 779.666 9.488 778.114 9.392 776.194C9.376 775.762 9.368 775.026 9.368 773.986C9.368 772.93 9.376 772.178 9.392 771.73C9.472 769.842 10.048 768.306 11.12 767.122C12.192 765.938 13.776 765.346 15.872 765.346C17.984 765.346 19.576 765.938 20.648 767.122C21.72 768.306 22.288 769.842 22.352 771.73C22.384 772.178 22.4 772.93 22.4 773.986C22.4 775.026 22.384 775.762 22.352 776.194C22.272 778.114 21.704 779.666 20.648 780.85C19.608 782.034 18.016 782.626 15.872 782.626ZM15.872 779.866C16.88 779.866 17.632 779.538 18.128 778.882C18.624 778.21 18.888 777.274 18.92 776.074C18.952 775.146 18.968 774.442 18.968 773.962C18.968 773.434 18.952 772.738 18.92 771.874C18.888 770.69 18.624 769.762 18.128 769.09C17.632 768.418 16.88 768.082 15.872 768.082C14.88 768.082 14.128 768.418 13.616 769.09C13.12 769.762 12.856 770.69 12.824 771.874C12.808 772.306 12.8 773.002 12.8 773.962C12.8 774.906 12.808 775.61 12.824 776.074C12.856 777.274 13.12 778.21 13.616 778.882C14.128 779.538 14.88 779.866 15.872 779.866ZM33.2534 782.386C33.0934 782.386 32.9574 782.33 32.8454 782.218C32.7334 782.106 32.6774 781.97 32.6774 781.81V778.738H25.0694C24.9094 778.738 24.7734 778.682 24.6614 778.57C24.5494 778.458 24.4934 778.322 24.4934 778.162V776.53C24.4934 776.274 24.5814 776.034 24.7574 775.81L31.8374 765.994C31.9174 765.866 32.0374 765.77 32.1974 765.706C32.3574 765.626 32.5334 765.586 32.7254 765.586H35.3414C35.5174 765.586 35.6534 765.642 35.7494 765.754C35.8614 765.85 35.9174 765.986 35.9174 766.162V775.906H38.0534C38.2294 775.906 38.3734 775.962 38.4854 776.074C38.5974 776.17 38.6534 776.306 38.6534 776.482V778.162C38.6534 778.322 38.5974 778.458 38.4854 778.57C38.3734 778.682 38.2374 778.738 38.0774 778.738H35.9174V781.81C35.9174 781.97 35.8614 782.106 35.7494 782.218C35.6534 782.33 35.5174 782.386 35.3414 782.386H33.2534ZM32.7494 776.002V769.066L27.8294 776.002H32.7494Z" fill="white"/>
<defs>
<filter id="filter0_d" x="17.5" y="35.1384" width="370" height="910.095" filterUnits="userSpaceOnUse" color-interpolation-filters="sRGB">
<feFlood flood-opacity="0" result="BackgroundImageFix"/>
<feColorMatrix in="SourceAlpha" type="matrix" values="0 0 0 0 0 0 0 0 0 0 0 0 0 0 0 0 0 0 127 0" result="hardAlpha"/>
<feOffset dy="4"/>
<feGaussianBlur stdDeviation="2"/>
<feComposite in2="hardAlpha" operator="out"/>
<feColorMatrix type="matrix" values="0 0 0 0 0 0 0 0 0 0 0 0 0 0 0 0 0 0 0.08 0"/>
<feBlend mode="normal" in2="BackgroundImageFix" result="effect1_dropShadow"/>
<feBlend mode="normal" in="SourceGraphic" in2="effect1_dropShadow" result="shape"/>
</filter>
</defs>
</svg>
