<svg width="405" height="946" fill="none" xmlns="http://www.w3.org/2000/svg"><g filter="url(#filter0_d)"><path d="M202.5 935c-238-119.665-238-219.387 0-299.164 238-79.777 238-179.498 0-299.164-238-119.665-238-219.386 0-299.163" stroke="#CAD1E1" stroke-width="5"/></g><ellipse cx="221" cy="24.385" rx="24" ry="24.229" fill="#2D9CDB"/><ellipse cx="221" cy="24.385" rx="18" ry="18.172" fill="#2D9CDB"/><path d="M215.872 32.53c-2.128 0-3.72-.593-4.776-1.777-1.04-1.184-1.608-2.736-1.704-4.656a68.832 68.832 0 01-.024-2.208c0-1.056.008-1.808.024-2.256.08-1.888.656-3.424 1.728-4.608 1.072-1.184 2.656-1.776 4.752-1.776 2.112 0 3.704.592 4.776 1.776 1.072 1.184 1.64 2.72 1.704 4.608.032.448.048 1.2.048 2.256 0 1.04-.016 1.776-.048 2.208-.08 1.92-.648 3.472-1.704 4.656-1.04 1.184-2.632 1.776-4.776 1.776zm0-2.76c1.008 0 1.76-.329 2.256-.985.496-.672.76-1.608.792-2.808.032-.928.048-1.632.048-2.112 0-.528-.016-1.224-.048-2.088-.032-1.184-.296-2.112-.792-2.784-.496-.672-1.248-1.008-2.256-1.008-.992 0-1.744.336-2.256 1.008-.496.672-.76 1.6-.792 2.784a63.501 63.501 0 00-.024 2.088c0 .944.008 1.648.024 2.112.032 1.2.296 2.136.792 2.808.512.656 1.264.984 2.256.984zm14.549 2.52a.555.555 0 01-.408-.169.555.555 0 01-.168-.408V19.281l-3.648 2.808a.509.509 0 01-.336.12c-.192 0-.352-.088-.48-.264l-1.008-1.296a.687.687 0 01-.12-.36c0-.192.088-.352.264-.48l5.376-4.152c.144-.112.344-.168.6-.168h2.112c.176 0 .312.056.408.168a.508.508 0 01.168.408v15.648c0 .16-.056.296-.168.408a.508.508 0 01-.408.168h-2.184z" fill="#fff"/><ellipse cx="24" cy="175.817" rx="24" ry="24.229" fill="#2D9CDB"/><ellipse cx="24" cy="175.818" rx="18" ry="18.172" fill="#2D9CDB"/><path d="M15.872 183.962c-2.128 0-3.72-.592-4.776-1.776-1.04-1.184-1.608-2.736-1.704-4.656a68.832 68.832 0 01-.024-2.208c0-1.056.008-1.808.024-2.256.08-1.888.656-3.424 1.728-4.608 1.072-1.184 2.656-1.776 4.752-1.776 2.112 0 3.704.592 4.776 1.776 1.072 1.184 1.64 2.72 1.704 4.608.032.448.048 1.2.048 2.256 0 1.04-.016 1.776-.048 2.208-.08 1.92-.648 3.472-1.704 4.656-1.04 1.184-2.632 1.776-4.776 1.776zm0-2.76c1.008 0 1.76-.328 2.256-.984.496-.672.76-1.608.792-2.808.032-.928.048-1.632.048-2.112 0-.528-.016-1.224-.048-2.088-.032-1.184-.296-2.112-.792-2.784-.496-.672-1.248-1.008-2.256-1.008-.992 0-1.744.336-2.256 1.008-.496.672-.76 1.6-.792 2.784a63.501 63.501 0 00-.024 2.088c0 .944.008 1.648.024 2.112.032 1.2.296 2.136.792 2.808.512.656 1.264.984 2.256.984zm9.557 2.52a.555.555 0 01-.408-.168.555.555 0 01-.168-.408v-1.224c0-.432.2-.808.6-1.128l3.792-3.768c1.648-1.296 2.792-2.304 3.432-3.024.656-.736.984-1.456.984-2.16 0-.752-.208-1.344-.624-1.776-.4-.432-1.008-.648-1.824-.648-.8 0-1.432.24-1.896.72-.464.464-.752 1.072-.864 1.824a.742.742 0 01-.264.432.798.798 0 01-.432.12h-2.136a.488.488 0 01-.36-.144.46.46 0 01-.144-.336 5.496 5.496 0 01.768-2.64c.48-.832 1.176-1.496 2.088-1.992.912-.512 1.984-.768 3.216-.768 1.28 0 2.36.224 3.24.672.896.432 1.568 1.032 2.016 1.8.448.768.672 1.64.672 2.616 0 1.072-.304 2.04-.912 2.904-.592.864-1.504 1.792-2.736 2.784l-3.408 3.456h6.84c.176 0 .312.056.408.168a.508.508 0 01.168.408v1.704c0 .16-.056.296-.168.408a.508.508 0 01-.408.168H25.43z" fill="#fff"/><ellipse cx="381" cy="503.922" rx="24" ry="24.229" fill="#2D9CDB"/><ellipse cx="381" cy="503.922" rx="18" ry="18.172" fill="#2D9CDB"/><path d="M372.872 512.066c-2.128 0-3.72-.592-4.776-1.776-1.04-1.184-1.608-2.736-1.704-4.656a68.832 68.832 0 01-.024-2.208c0-1.056.008-1.808.024-2.256.08-1.888.656-3.424 1.728-4.608 1.072-1.184 2.656-1.776 4.752-1.776 2.112 0 3.704.592 4.776 1.776 1.072 1.184 1.64 2.72 1.704 4.608.032.448.048 1.2.048 2.256 0 1.04-.016 1.776-.048 2.208-.08 1.92-.648 3.472-1.704 4.656-1.04 1.184-2.632 1.776-4.776 1.776zm0-2.76c1.008 0 1.76-.328 2.256-.984.496-.672.76-1.608.792-2.808.032-.928.048-1.632.048-2.112 0-.528-.016-1.224-.048-2.088-.032-1.184-.296-2.112-.792-2.784-.496-.672-1.248-1.008-2.256-1.008-.992 0-1.744.336-2.256 1.008-.496.672-.76 1.6-.792 2.784a63.501 63.501 0 00-.024 2.088c0 .944.008 1.648.024 2.112.032 1.2.296 2.136.792 2.808.512.656 1.264.984 2.256.984zm15.365 2.76c-1.408 0-2.608-.224-3.6-.672-.976-.448-1.712-1.008-2.208-1.68-.48-.688-.736-1.392-.768-2.112 0-.144.048-.256.144-.336a.573.573 0 01.384-.144h2.16c.352 0 .584.16.696.48.352 1.152 1.424 1.728 3.216 1.728.976 0 1.744-.224 2.304-.672.56-.464.84-1.12.84-1.968 0-1.6-1-2.4-3-2.4h-2.472a.585.585 0 01-.432-.168.555.555 0 01-.168-.408v-1.008c0-.256.112-.496.336-.72l4.296-4.2h-6.864a.555.555 0 01-.408-.168.555.555 0 01-.168-.408v-1.584a.64.64 0 01.144-.432.585.585 0 01.432-.168h10.296c.176 0 .32.056.432.168a.585.585 0 01.168.432v1.44c0 .24-.104.464-.312.672l-4.152 4.272.288.024c1.536.128 2.752.592 3.648 1.392.912.8 1.368 1.944 1.368 3.432 0 1.056-.288 1.976-.864 2.76-.56.784-1.344 1.392-2.352 1.824-.992.416-2.12.624-3.384.624z" fill="#fff"/><ellipse cx="24" cy="774.481" rx="24" ry="24.229" fill="#2D9CDB"/><ellipse cx="24" cy="774.481" rx="18" ry="18.172" fill="#2D9CDB"/><path d="M15.872 782.626c-2.128 0-3.72-.592-4.776-1.776-1.04-1.184-1.608-2.736-1.704-4.656a68.832 68.832 0 01-.024-2.208c0-1.056.008-1.808.024-2.256.08-1.888.656-3.424 1.728-4.608 1.072-1.184 2.656-1.776 4.752-1.776 2.112 0 3.704.592 4.776 1.776 1.072 1.184 1.64 2.72 1.704 4.608.032.448.048 1.2.048 2.256 0 1.04-.016 1.776-.048 2.208-.08 1.92-.648 3.472-1.704 4.656-1.04 1.184-2.632 1.776-4.776 1.776zm0-2.76c1.008 0 1.76-.328 2.256-.984.496-.672.76-1.608.792-2.808.032-.928.048-1.632.048-2.112 0-.528-.016-1.224-.048-2.088-.032-1.184-.296-2.112-.792-2.784-.496-.672-1.248-1.008-2.256-1.008-.992 0-1.744.336-2.256 1.008-.496.672-.76 1.6-.792 2.784a63.501 63.501 0 00-.024 2.088c0 .944.008 1.648.024 2.112.032 1.2.296 2.136.792 2.808.512.656 1.264.984 2.256.984zm17.381 2.52a.555.555 0 01-.408-.168.555.555 0 01-.168-.408v-3.072H25.07a.555.555 0 01-.408-.168.555.555 0 01-.168-.408v-1.632c0-.256.088-.496.264-.72l7.08-9.816c.08-.128.2-.224.36-.288.16-.08.336-.12.528-.12h2.616c.176 0 .312.056.408.168a.508.508 0 01.168.408v9.744h2.136c.176 0 .32.056.432.168a.508.508 0 01.168.408v1.68c0 .16-.056.296-.168.408a.555.555 0 01-.408.168h-2.16v3.072c0 .16-.056.296-.168.408a.508.508 0 01-.408.168h-2.088zm-.504-6.384v-6.936l-4.92 6.936h4.92z" fill="#fff"/><defs><filter id="filter0_d" x="17.5" y="35.138" width="370" height="910.095" filterUnits="userSpaceOnUse" color-interpolation-filters="sRGB"><feFlood flood-opacity="0" result="BackgroundImageFix"/><feColorMatrix in="SourceAlpha" values="0 0 0 0 0 0 0 0 0 0 0 0 0 0 0 0 0 0 127 0" result="hardAlpha"/><feOffset dy="4"/><feGaussianBlur stdDeviation="2"/><feComposite in2="hardAlpha" operator="out"/><feColorMatrix values="0 0 0 0 0 0 0 0 0 0 0 0 0 0 0 0 0 0 0.08 0"/><feBlend in2="BackgroundImageFix" result="effect1_dropShadow"/><feBlend in="SourceGraphic" in2="effect1_dropShadow" result="shape"/></filter></defs></svg>