<svg width="184" height="26" fill="none" xmlns="http://www.w3.org/2000/svg"><path fill-rule="evenodd" clip-rule="evenodd" d="M171.5 1C164.596 1 159 6.596 159 13.5S164.596 26 171.5 26 184 20.404 184 13.5 178.404 1 171.5 1zm-2.748 5.874c.711-.033.938-.04 2.749-.04h-.002c1.811 0 2.037.007 2.748.04.71.032 1.195.144 1.62.31.439.17.809.397 1.18.768.371.37.599.743.77 1.181.164.424.276.908.309 1.618.032.711.041.939.041 2.75 0 1.81-.009 2.036-.041 2.747-.033.71-.145 1.194-.309 1.618-.171.439-.399.81-.77 1.181-.37.371-.742.6-1.18.77-.424.165-.909.277-1.619.31-.711.032-.937.04-2.748.04-1.811 0-2.038-.008-2.749-.04-.709-.033-1.194-.145-1.618-.31a3.272 3.272 0 01-1.181-.77 3.284 3.284 0 01-.769-1.18c-.164-.425-.277-.909-.309-1.619-.033-.71-.041-.937-.041-2.748 0-1.81.009-2.038.041-2.749.031-.71.144-1.194.309-1.618a3.27 3.27 0 01.77-1.18c.37-.372.742-.6 1.181-.77.424-.165.908-.277 1.618-.31z" fill="#2D9CDB"/><path fill-rule="evenodd" clip-rule="evenodd" d="M170.903 8.035h.598c1.78 0 1.991.006 2.694.038.65.03 1.002.138 1.237.23.311.12.533.265.766.498.234.234.378.456.499.767.092.235.2.588.23 1.238.032.702.039.913.039 2.693 0 1.779-.007 1.99-.039 2.693-.03.65-.138 1.002-.23 1.237a2.055 2.055 0 01-.499.766 2.053 2.053 0 01-.766.499c-.234.091-.587.2-1.237.23-.703.031-.914.038-2.694.038-1.781 0-1.992-.007-2.694-.039-.65-.03-1.003-.138-1.238-.23a2.066 2.066 0 01-.767-.498 2.07 2.07 0 01-.499-.766c-.091-.235-.2-.588-.229-1.238-.032-.703-.039-.914-.039-2.694 0-1.78.007-1.99.039-2.693.029-.65.138-1.003.229-1.238a2.08 2.08 0 01.499-.767c.233-.233.456-.377.767-.499.235-.091.588-.2 1.238-.23.615-.027.853-.036 2.096-.037v.002zm4.156 1.107a.8.8 0 100 1.6.8.8 0 000-1.6zm-6.982 4.358a3.424 3.424 0 116.848 0 3.424 3.424 0 01-6.848 0z" fill="#2D9CDB"/><path fill-rule="evenodd" clip-rule="evenodd" d="M171.501 11.278a2.222 2.222 0 110 4.444 2.222 2.222 0 010-4.444zM65.5 0C58.596 0 53 5.596 53 12.5S58.596 25 65.5 25 78 19.404 78 12.5 72.404 0 65.5 0zm1.303 13.05v6.8h-2.814v-6.8h-1.406v-2.344h1.406V9.299c0-1.912.794-3.049 3.049-3.049h1.878v2.344h-1.174c-.878 0-.936.327-.936.939l-.003 1.173h2.126l-.249 2.343h-1.877zM118.5 0C111.596 0 106 5.596 106 12.5S111.596 25 118.5 25 131 19.404 131 12.5 125.404 0 118.5 0zm1.018 16.446c-.123.13-.364.156-.364.156h-.797s-1.758.104-3.307-1.479c-1.689-1.726-3.18-5.151-3.18-5.151s-.086-.225.007-.333c.105-.122.391-.13.391-.13l1.905-.012s.179.028.308.121c.106.077.165.22.165.22s.308.764.716 1.456c.796 1.35 1.166 1.645 1.436 1.5.394-.21.276-1.908.276-1.908s.007-.616-.198-.89c-.159-.213-.459-.275-.591-.293-.108-.014.068-.258.296-.368.343-.164.948-.174 1.664-.167.557.006.718.04.936.092.505.12.489.503.455 1.332-.01.247-.022.535-.022.867 0 .074-.002.154-.004.236-.012.424-.026.91.259 1.09.146.093.503.014 1.396-1.474.423-.705.74-1.534.74-1.534s.07-.148.177-.211c.111-.065.259-.045.259-.045l2.005-.012s.603-.071.7.196c.102.28-.225.934-1.044 2.006-.777 1.017-1.155 1.391-1.121 1.722.026.242.271.46.743.89.985.898 1.249 1.37 1.312 1.483l.012.02c.441.72-.49.776-.49.776l-1.781.024s-.382.075-.885-.265c-.264-.177-.522-.467-.767-.743-.375-.422-.721-.812-1.017-.72-.496.155-.481 1.204-.481 1.204s.004.225-.109.344zM12.5 1C5.596 1 0 6.596 0 13.5S5.596 26 12.5 26 25 20.404 25 13.5 19.404 1 12.5 1zm5.21 8.203a1.693 1.693 0 011.178 1.21c.279 1.068.279 3.295.279 3.295s0 2.228-.279 3.295a1.693 1.693 0 01-1.179 1.211c-1.04.286-5.209.286-5.209.286s-4.17 0-5.21-.286a1.693 1.693 0 01-1.178-1.21c-.279-1.068-.279-3.296-.279-3.296s0-2.227.279-3.295a1.693 1.693 0 011.179-1.21c1.04-.286 5.209-.286 5.209-.286s4.17 0 5.21.286z" fill="#2D9CDB"/><path fill-rule="evenodd" clip-rule="evenodd" d="M11.25 16v-4.167l3.333 2.084L11.25 16z" fill="#2D9CDB"/></svg>