<svg width="91" height="57" fill="none" xmlns="http://www.w3.org/2000/svg"><g filter="url(#filter0_d)" fill="#FFF089"><path d="M7 48.907a3 3 0 01-3-3v-1.459a3 3 0 012.374-2.934l.29-.062a3 3 0 002.374-2.934V10.422a3 3 0 00-2.374-2.934l-.29-.062A3 3 0 014 4.492V3a3 3 0 013-3h12.37a3 3 0 012.542 1.407l18.696 29.838a.13.13 0 00.24-.07V10.534a3 3 0 00-2.505-2.958l-1.407-.236a3 3 0 01-2.504-2.959V3a3 3 0 013-3h15.934a3 3 0 013 3v1.489a3 3 0 01-2.378 2.934l-.316.067a3 3 0 00-2.378 2.935v35.482a3 3 0 01-3 3h-6.997a3 3 0 01-2.513-1.361L19.725 18.332a.13.13 0 00-.24.072v20a3 3 0 002.507 2.96l1.435.239a3 3 0 012.507 2.959v1.345a3 3 0 01-3 3H7zm53.844 0a3 3 0 01-3-3v-1.234a3 3 0 012.632-2.978l3.436-.424a3 3 0 002.632-2.977V13.009a3 3 0 00-2.966-3l-2.836-.032a3 3 0 01-2.965-3v-1.01a3 3 0 012.506-2.96L74.806.584a3 3 0 013.494 2.96v34.75a3 3 0 002.632 2.978l3.436.424A3 3 0 0187 44.673v1.233a3 3 0 01-3 3H60.844z"/></g><defs><filter id="filter0_d" x="0" y="0" width="91" height="56.907" filterUnits="userSpaceOnUse" color-interpolation-filters="sRGB"><feFlood flood-opacity="0" result="BackgroundImageFix"/><feColorMatrix in="SourceAlpha" values="0 0 0 0 0 0 0 0 0 0 0 0 0 0 0 0 0 0 127 0" result="hardAlpha"/><feOffset dy="4"/><feGaussianBlur stdDeviation="2"/><feComposite in2="hardAlpha" operator="out"/><feColorMatrix values="0 0 0 0 0 0 0 0 0 0 0 0 0 0 0 0 0 0 0.2 0"/><feBlend in2="BackgroundImageFix" result="effect1_dropShadow"/><feBlend in="SourceGraphic" in2="effect1_dropShadow" result="shape"/></filter></defs></svg>