<svg width="91" height="57" viewBox="0 0 91 57" fill="none" xmlns="http://www.w3.org/2000/svg">
<g filter="url(#filter0_d)">
<path d="M7 48.9065C5.34315 48.9065 4 47.5634 4 45.9065V44.4481C4 43.0325 4.9896 41.8095 6.37408 41.5142L6.66436 41.4522C8.04885 41.1569 9.03845 39.9339 9.03845 38.5183V10.4218C9.03845 9.0062 8.04884 7.78322 6.66436 7.48786L6.37408 7.42594C4.9896 7.13058 4 5.9076 4 4.49196V3C4 1.34315 5.34315 0 7 0H19.3695C20.4026 0 21.3631 0.531598 21.9116 1.40706L40.6082 31.2447C40.6319 31.2826 40.6734 31.3055 40.7181 31.3055C40.7897 31.3055 40.8478 31.2475 40.8478 31.1758V10.5335C40.8478 9.06797 39.789 7.81693 38.3435 7.57477L36.9365 7.33903C35.4911 7.09687 34.4322 5.84582 34.4322 4.38027V3C34.4322 1.34315 35.7754 0 37.4322 0H53.3662C55.0231 0 56.3662 1.34315 56.3662 3V4.4886C56.3662 5.90576 55.3746 7.12962 53.9882 7.42342L53.6723 7.49038C52.2859 7.78418 51.2942 9.00804 51.2942 10.4252V45.9065C51.2942 47.5634 49.9511 48.9065 48.2942 48.9065H41.297C40.2833 48.9065 39.3383 48.3947 38.7844 47.5457L19.725 18.3321C19.7009 18.2951 19.6597 18.2728 19.6156 18.2728C19.5434 18.2728 19.4848 18.3313 19.4848 18.4035V38.4044C19.4848 39.8709 20.5451 41.1225 21.9916 41.3636L23.4272 41.6028C24.8738 41.8439 25.934 43.0955 25.934 44.562V45.9065C25.934 47.5634 24.5909 48.9065 22.934 48.9065H7Z" fill="#FFF089"/>
<path d="M60.8442 48.9065C59.1873 48.9065 57.8442 47.5634 57.8442 45.9065V44.6728C57.8442 43.1582 58.9732 41.8811 60.4763 41.6954L63.9118 41.271C65.4149 41.0853 66.5439 39.8082 66.5439 38.2936V13.009C66.5439 11.3656 65.2217 10.0281 63.5784 10.0092L60.7425 9.97662C59.0992 9.95773 57.777 8.62022 57.777 6.97682V5.96684C57.777 4.50062 58.8368 3.24922 60.283 3.00779L74.8063 0.583282C76.6351 0.277978 78.3003 1.68819 78.3003 3.54233V38.2936C78.3003 39.8082 79.4293 41.0853 80.9324 41.271L84.3679 41.6954C85.871 41.8811 87 43.1582 87 44.6728V45.9065C87 47.5634 85.6569 48.9065 84 48.9065H60.8442Z" fill="#FFF089"/>
</g>
<defs>
<filter id="filter0_d" x="0" y="0" width="91" height="56.9065" filterUnits="userSpaceOnUse" color-interpolation-filters="sRGB">
<feFlood flood-opacity="0" result="BackgroundImageFix"/>
<feColorMatrix in="SourceAlpha" type="matrix" values="0 0 0 0 0 0 0 0 0 0 0 0 0 0 0 0 0 0 127 0" result="hardAlpha"/>
<feOffset dy="4"/>
<feGaussianBlur stdDeviation="2"/>
<feComposite in2="hardAlpha" operator="out"/>
<feColorMatrix type="matrix" values="0 0 0 0 0 0 0 0 0 0 0 0 0 0 0 0 0 0 0.2 0"/>
<feBlend mode="normal" in2="BackgroundImageFix" result="effect1_dropShadow"/>
<feBlend mode="normal" in="SourceGraphic" in2="effect1_dropShadow" result="shape"/>
</filter>
</defs>
</svg>
